# AST/ASF file generated using VICON BodyLanguage
# -----------------------------------------------
:version 1.10
:name VICON
:units
  mass 1.0
  length 0.45
  angle deg
:documentation
   .ast/.asf automatically generated from VICON data using
   VICON BodyBuilder and BodyLanguage model FoxedUp or BRILLIANT.MOD
:root
   order TX TY TZ RX RY RZ
   axis XYZ
   position 0 0 0  
   orientation 0 0 0 
:bonedata
  begin
     id 1 
     name lhipjoint
     direction 0.576517 -0.752066 0.319413 
     length 2.45433 
     axis 0 0 0  XYZ
  end
  begin
     id 2 
     name lfemur
     direction 0.34202 -0.939693 0  
     length 7.54459  
     axis 0 0 20  XYZ
    dof rx ry rz
    limits (-160.0 20.0)
           (-70.0 70.0)
           (-60.0 70.0)
  end
  begin
     id 3 
     name ltibia
     direction 0.34202 -0.939693 0   
     length 7.73986   
     axis 0 0 20   XYZ
    dof rx
    limits (-10.0 170.0)
  end
  begin
     id 4 
     name lfoot
     direction 0.090693 -0.249177 0.964202   
     length 2.28437   
     axis -90 7.62852e-016 20   XYZ
    dof rx rz
    limits (-45.0 90.0)
           (-70.0 20.0)
  end
  begin
     id 5 
     name ltoes
     direction 1.5356e-011 -4.21928e-011 1   
     length 1.14243   
     axis -90 7.62852e-016 20   XYZ
    dof rx
    limits (-90.0 20.0)
  end
  begin
     id 6 
     name rhipjoint
     direction -0.573937 -0.753736 0.320122   
     length 2.44889  
     axis 0 0 0  XYZ 
  end
  begin
     id 7 
     name rfemur
     direction -0.34202 -0.939693 0   
     length 7.50166   
     axis 0 0 -20   XYZ
    dof rx ry rz
    limits (-160.0 20.0)
           (-70.0 70.0)
           (-70.0 60.0)
  end
  begin
     id 8 
     name rtibia
     direction -0.34202 -0.939693 0   
     length 7.54266   
     axis 0 0 -20   XYZ
    dof rx
    limits (-10.0 170.0)
 end
 begin
     id 9 
     name rfoot
     direction -0.114017 -0.31326 0.942798   
     length 2.34212  
     axis -90 -7.62852e-016 -20   XYZ
    dof rx rz
    limits (-45.0 90.0)
           (-20.0 70.0)
  end
  begin
     id 10 
     name rtoes
     direction -1.53557e-011 -4.21867e-011 1   
     length 1.16246   
     axis -90 -7.62852e-016 -20   XYZ
    dof rx
    limits (-90.0 20.0)
  end
  begin
     id 11 
     name lowerback
     direction -0.0228371 0.999155 -0.034167   
     length 2.0537   
     axis 0 0 0   XYZ
    dof rx ry rz
    limits (-20.0 45.0)
           (-30.0 30.0)
           (-30.0 30.0)
  end
  begin
     id 12 
     name upperback
     direction 0.0198981 0.999794 0.00389455   
     length 2.05302   
     axis 0 0 0   XYZ
    dof rx ry rz
    limits (-20.0 45.0)
           (-30.0 30.0)
           (-30.0 30.0)
  end
  begin
     id 13 
     name thorax
     direction 0.0304566 0.99935 0.0192987   
     length 2.05315   
     axis 0 0 0   XYZ
    dof rx ry rz
    limits (-20.0 45.0)
           (-30.0 30.0)
           (-30.0 30.0)
  end
  begin
     id 14 
     name lowerneck
     direction -0.0196762 0.99417 0.106017   
     length 1.82056   
     axis 0 0 0   XYZ
    dof rx ry rz
    limits (-20.0 45.0)
           (-30.0 30.0)
           (-30.0 30.0)
  end
  begin
     id 15 
     name upperneck
     direction 0.00517787 0.9802 -0.197944   
     length 1.83835   
     axis 0 0 0   XYZ
    dof rx ry rz
    limits (-20.0 45.0)
           (-30.0 30.0)
           (-30.0 30.0)
  end
  begin
     id 16
     name head
     direction 0.00211419 0.996945 -0.078081  
     length 1.85629  
     axis 0 0 0   XYZ
    dof rx ry rz
    limits (-20.0 45.0)
           (-30.0 30.0)
           (-30.0 30.0)
  end
  begin
     id 17 
     name lclavicle
     direction 0.930001 0.365811 -0.0357824  
     length 3.81961  
     axis 0 0 0   XYZ
    dof ry rz
    limits (-20.0 10.0)
           (0.0 20.0)
  end
  begin
     id 18 
     name lhumerus
     direction 1 -4.48968e-011 -3.06644e-027   
     length 5.14507   
     axis 180 -30 -90   XYZ
    dof rx ry rz
    limits (-60.0 90.0)
           (-90.0 90.0)
           (-90.0 90.0)
  end
  begin
     id 19
     name lradius
     direction 1 -4.48965e-011 9.06925e-028   
     length 3.50646   
     axis 180 -30 -90   XYZ
    dof rx
    limits (-10.0 170.0)
  end
  begin
     id 20
     name lwrist
     direction 1 -4.48957e-011 1.03922e-027   
     length 1.75323   
     axis -2.56395e-016 90 90   XYZ
    dof ry
    limits (-180.0 0.0)
 end
  begin
     id 21 
     name lhand
     direction 1 -4.48967e-011 2.08017e-027   
     length 0.629969   
     axis -1.32723e-015 90 90   XYZ
    dof rx rz
    limits (-90.0 90.0)
           (-45.0 45.0)
  end
  begin
     id 22 
     name lfingers
     direction 1 -4.49089e-011 4.20095e-027   
     length 0.507897   
     axis -2.6545e-015 90 90   XYZ
    dof rx
    limits (0.0 90.0)
  end
  begin
     id 23
     name lthumb
     direction 0.707107 -6.35001e-011 0.707107   
     length 0.729241   
     axis -90 45 5.05613e-014   XYZ
    dof rx rz
    limits (-45.0 45.0)
           (-45.0 45.0)
  end
  begin
     id 24 
     name rclavicle
     direction -0.881882 0.464123 -0.0829113   
     length 3.47515  
     axis 0 0 0   XYZ 
    dof ry rz
    limits (-10.0 20.0)
           (-20.0 0.0)
  end
  begin
     id 25 
     name rhumerus
     direction -1 -4.48961e-011 -1.55672e-027  
     length 5.232   
     axis 180 30 90   XYZ
    dof rx ry rz
    limits (-90.0 60.0)
           (-90.0 90.0)
           (-90.0 90.0)
  end
  begin
     id 26 
     name rradius
     direction -1 -4.48963e-011 6.18178e-029   
     length 3.65641   
     axis 180 30 90   XYZ
    dof rx
    limits (-10.0 170.0)
  end
  begin
     id 27 
     name rwrist
     direction -1 -4.48982e-011 1.04136e-027   
     length 1.8282   
     axis -2.56395e-016 -90 -90   XYZ
    dof ry
    limits (-180.0 0.0)
  end
  begin
     id 28
     name rhand
     direction -1 -4.48929e-011 2.07378e-027   
     length 0.656807   
     axis -1.32723e-015 -90 -90   XYZ
    dof rx rz
    limits (-90.0 90.0)
           (-45.0 45.0)
  end
  begin
     id 29
     name rfingers
     direction -1 -4.489e-011 4.13816e-027   
     length 0.529535   
     axis -2.6545e-015 -90 -90   XYZ
    dof rx
    limits (0.0 90.0)
  end
  begin
     id 30
     name rthumb
     direction -0.707107 -6.34843e-011 0.707107   
     length 0.760309   
     axis -90 -45 -5.05613e-014   XYZ
    dof rx rz
    limits (-45.0 45.0)
           (-45.0 45.0)
  end
:hierarchy
  begin
    root lhipjoint rhipjoint lowerback
    lhipjoint lfemur
    lfemur ltibia
    ltibia lfoot
    lfoot ltoes
    rhipjoint rfemur
    rfemur rtibia
    rtibia rfoot
    rfoot rtoes
    lowerback upperback
    upperback thorax
    thorax lowerneck lclavicle rclavicle
    lowerneck upperneck
    upperneck head
    lclavicle lhumerus
    lhumerus lradius
    lradius lwrist
    lwrist lhand lthumb
    lhand lfingers
    rclavicle rhumerus
    rhumerus rradius
    rradius rwrist
    rwrist rhand rthumb
    rhand rfingers
  end

#!OML:ASF H:\ManfredETheater\Project 1\Capture day 1\Session 1\subject.ASF
:FULLY-SPECIFIED
:DEGREES
16
root -0.851709 16.0966 -26.6864 9.37364 -4.01752 -9.70487
lowerback 22.5871 0.406693 10.184
upperback 0.505572 4.08385 7.36076
thorax -12.0613 1.54714 1.21366
lowerneck -17.6787 -0.0313134 -0.199336
upperneck 5.27863 0.705668 -7.0834
head 4.46293 -0.129548 -2.12355
rclavicle -2.62396e-014 0
rhumerus -18.5153 6.48895 -86.1582
rradius 96.6906
rwrist -8.38658
rhand -32.4418 9.78852
rfingers 7.12502
rthumb -5.67531 -20.1155
lclavicle -2.62396e-014 0
lhumerus -44.3816 -24.7121 91.3078
lradius 90.2948
lwrist 7.42893
lhand -21.619 -7.85039
lfingers 7.12502
lthumb 4.77667 22.0758
rfemur -22.6148 -3.72563 25.3608
rtibia 60.7621
rfoot -33.4473 -8.79146
rtoes -24.0485
lfemur -56.4104 5.15947 -19.8117
ltibia 95.3578
lfoot -16.1929 2.42127
ltoes -10.4999
17
root -0.927143 16.1051 -26.0037 9.3046 -3.13102 -9.91441
lowerback 22.163 0.488339 10.1198
upperback 0.458002 4.12454 7.41407
thorax -11.8854 1.58083 1.30182
lowerneck -17.7283 -0.372755 -0.297134
upperneck 5.29645 0.237227 -6.71869
head 4.45574 -0.338984 -2.03498
rclavicle -1.19271e-015 -7.63333e-014
rhumerus -19.0933 7.40479 -86.8124
rradius 96.9558
rwrist -7.47265
rhand -32.0965 10.3154
rfingers 7.12502
rthumb -5.34194 -19.5973
lclavicle -1.19271e-015 -7.63333e-014
lhumerus -45.1744 -24.5872 91.0017
lradius 91.7819
lwrist 7.94083
lhand -21.252 -7.89828
lfingers 7.12502
lthumb 5.13098 22.0196
rfemur -19.5159 -3.92848 25.4136
rtibia 60.0934
rfoot -32.6317 -7.9341
rtoes -26.9054
lfemur -59.5897 4.19486 -19.951
ltibia 91.6696
lfoot -16.8438 2.20217
ltoes -11.1192
18
root -0.996577 16.1196 -25.3119 9.08717 -2.31817 -10.099
lowerback 21.8256 0.546296 10.0518
upperback 0.458091 4.13657 7.43689
thorax -11.7012 1.60084 1.36451
lowerneck -17.7972 -0.71315 -0.43243
upperneck 5.36503 -0.218161 -6.3498
head 4.47021 -0.543998 -1.93853
rclavicle -2.38542e-014 -7.95139e-014
rhumerus -19.9338 8.24912 -87.4611
rradius 96.9224
rwrist -6.13706
rhand -31.6913 10.8405
rfingers 7.12502
rthumb -4.95067 -19.0816
lclavicle -2.38542e-014 -7.95139e-014
lhumerus -45.7949 -24.4261 90.784
lradius 93.2713
lwrist 8.27838
lhand -20.9643 -7.94112
lfingers 7.12502
lthumb 5.40883 21.9698
rfemur -16.5556 -3.85929 25.3931
rtibia 59.6793
rfoot -30.6494 -6.50508
rtoes -29.1452
lfemur -61.847 3.32788 -20.0849
ltibia 87.1844
lfoot -17.372 1.66863
ltoes -12.0434
19
root -1.05932 16.137 -24.6131 8.73336 -1.62293 -10.3118
lowerback 21.5928 0.575778 10.0272
upperback 0.505122 4.12945 7.44118
thorax -11.5175 1.60874 1.38592
lowerneck -17.8815 -1.03173 -0.584468
upperneck 5.47897 -0.635012 -6.00899
head 4.50501 -0.733311 -1.84561
rclavicle 2.26615e-014 1.74931e-014
rhumerus -20.9994 8.94846 -88.1244
rradius 96.5233
rwrist -4.50568
rhand -31.2476 11.3046
rfingers 7.12502
rthumb -4.52226 -18.6272
lclavicle 2.26615e-014 1.74931e-014
lhumerus -46.2347 -24.1832 90.6456
lradius 94.7514
lwrist 8.46235
lhand -20.7759 -7.96913
lfingers 7.12502
lthumb 5.59072 21.9371
rfemur -13.8738 -3.56167 25.3619
rtibia 59.6622
rfoot -27.2752 -4.60128
rtoes -30.4687
lfemur -63.2166 2.63454 -20.1741
ltibia 82.097
lfoot -17.6719 0.841758
ltoes -13.201
20
root -1.1146 16.1566 -23.9081 8.2727 -1.06996 -10.5511
lowerback 21.4423 0.574553 10.0371
upperback 0.587021 4.09651 7.43258
thorax -11.3377 1.60202 1.37984
lowerneck -17.9674 -1.31079 -0.747224
upperneck 5.64723 -0.989602 -5.7123
head 4.56108 -0.896066 -1.76023
rclavicle 1.47101e-014 3.81667e-014
rhumerus -22.2627 9.44479 -88.7903
rradius 95.6976
rwrist -2.76522
rhand -30.7744 11.6672
rfingers 7.12502
rthumb -4.06524 -18.2738
lclavicle 1.47101e-014 3.81667e-014
lhumerus -46.5014 -23.8255 90.5857
lradius 96.2177
lwrist 8.53096
lhand -20.7573 -8.00332
lfingers 7.12502
lthumb 5.60864 21.9025
rfemur -11.5941 -3.12961 25.3123
rtibia 60.1451
rfoot -22.7781 -2.51331
rtoes -31.2918
lfemur -63.768 2.1368 -20.2353
ltibia 76.6088
lfoot -17.6186 -0.148388
ltoes -14.4535
21
root -1.1626 16.1772 -23.1975 7.74851 -0.680716 -10.8101
lowerback 21.3314 0.55193 10.054
upperback 0.690087 4.03902 7.41695
thorax -11.1559 1.58326 1.36841
lowerneck -18.0485 -1.53543 -0.901202
upperneck 5.87294 -1.26471 -5.47945
head 4.63809 -1.02466 -1.69018
rclavicle -5.56597e-015 -2.54444e-014
rhumerus -23.6886 9.67889 -89.4204
rradius 94.4216
rwrist -1.08023
rhand -30.2922 11.8443
rfingers 7.12502
rthumb -3.59966 -18.105
lclavicle -5.56597e-015 -2.54444e-014
lhumerus -46.5909 -23.3383 90.582
lradius 97.6929
lwrist 8.54445
lhand -20.829 -7.98547
lfingers 7.12502
lthumb 5.53946 21.9221
rfemur -9.81624 -2.65549 25.223
rtibia 61.1845
rfoot -17.5842 -0.430905
rtoes -31.1565
lfemur -63.6239 1.85026 -20.2859
ltibia 70.9473
lfoot -17.1224 -1.07838
ltoes -15.6012
22
root -1.20423 16.1966 -22.4824 7.19009 -0.426765 -11.0601
lowerback 21.2305 0.502803 10.0414
upperback 0.796579 3.93961 7.3956
thorax -10.9793 1.54602 1.37916
lowerneck -18.1195 -1.69361 -1.03212
upperneck 6.16145 -1.44712 -5.31418
head 4.73638 -1.11266 -1.63767
rclavicle -7.15625e-015 2.06736e-014
rhumerus -25.239 9.60524 -89.9551
rradius 92.6912
rwrist 0.42679
rhand -29.7771 11.8425
rfingers 7.12502
rthumb -3.10219 -18.1147
lclavicle -7.15625e-015 2.06736e-014
lhumerus -46.5095 -22.735 90.6133
lradius 99.1918
lwrist 8.55785
lhand -20.9968 -7.93609
lfingers 7.12502
lthumb 5.37742 21.9757
rfemur -8.59138 -2.25552 25.0551
rtibia 62.8029
rfoot -12.3343 1.29161
rtoes -30.22
lfemur -62.9182 1.73896 -20.3536
ltibia 65.356
lfoot -16.1602 -1.72791
ltoes -16.3773
23
root -1.24078 16.2107 -21.7641 6.60756 -0.263221 -11.2862
lowerback 21.1263 0.417203 9.98626
upperback 0.89258 3.78219 7.36745
thorax -10.8178 1.48279 1.42304
lowerneck -18.1775 -1.78055 -1.12936
upperneck 6.51437 -1.53418 -5.20347
head 4.85542 -1.15775 -1.59987
rclavicle -2.0276e-014 2.22639e-014
rhumerus -26.8741 9.1895 -90.33
rradius 90.5232
rwrist 1.69477
rhand -29.2077 11.6721
rfingers 7.12502
rthumb -2.55228 -18.2923
lclavicle -2.0276e-014 2.22639e-014
lhumerus -46.247 -22.0458 90.6352
lradius 100.725
lwrist 8.59866
lhand -21.2245 -7.83145
lfingers 7.12502
lthumb 5.15761 22.0858
rfemur -7.9148 -2.02483 24.7922
rtibia 64.9857
rfoot -7.74112 2.38315
rtoes -28.7897
lfemur -61.7837 1.75587 -20.4484
ltibia 60.086
lfoot -14.7793 -1.94175
ltoes -16.6405
